<?xml version="1.0" encoding="iso-8859-1"?>
<!-- Generator: Adobe Illustrator 19.0.0, SVG Export Plug-In . SVG Version: 6.00 Build 0)  -->
<svg version="1.1" id="Layer_1" xmlns="http://www.w3.org/2000/svg" xmlns:xlink="http://www.w3.org/1999/xlink" x="0px" y="0px"
	 viewBox="0 0 511.999 511.999" style="enable-background:new 0 0 511.999 511.999;" xml:space="preserve">
<g>
	<g>
		<g>
			<path d="M511.196,231.68c-0.642-1.374-1.629-2.513-2.819-3.357c-1.367-0.971-3.005-1.553-4.747-1.597
				c-5.996-0.148-11.946-1.442-17.489-3.779c-1.848-0.779-3.65-1.674-5.394-2.68c-13.762-7.947-22.69-22.11-23.974-37.953
				c-0.013-0.176-0.031-0.352-0.055-0.568c-0.016-0.184-0.053-0.363-0.079-0.544c-0.023-0.145-0.035-0.293-0.064-0.436
				c-0.042-0.203-0.101-0.399-0.157-0.598c-0.038-0.136-0.068-0.275-0.112-0.409c-0.065-0.197-0.15-0.386-0.23-0.577
				c-0.053-0.127-0.098-0.258-0.157-0.382c-0.09-0.19-0.198-0.371-0.302-0.554c-0.065-0.116-0.123-0.237-0.194-0.35
				c-0.116-0.185-0.25-0.357-0.38-0.532c-0.075-0.101-0.142-0.208-0.221-0.306c-0.147-0.18-0.31-0.348-0.472-0.516
				c-0.077-0.08-0.147-0.168-0.227-0.246c-0.19-0.183-0.396-0.351-0.603-0.516c-0.064-0.052-0.122-0.111-0.188-0.16
				c-0.281-0.212-0.577-0.41-0.887-0.588c-0.264-0.151-0.536-0.281-0.811-0.402c-0.044-0.019-0.086-0.046-0.13-0.064
				c-0.201-0.085-0.407-0.147-0.612-0.216c-0.128-0.043-0.251-0.097-0.38-0.133c-0.115-0.033-0.233-0.049-0.348-0.077
				c-0.222-0.054-0.444-0.112-0.67-0.147c-0.012-0.002-0.025-0.001-0.036-0.003c-1.697-0.26-3.459-0.011-5.047,0.762
				c-6.569,3.191-13.896,4.877-21.189,4.877c-8.416,0-16.742-2.239-24.079-6.474c-13.893-8.023-22.871-22.379-24.019-38.405
				c-0.028-0.39-0.087-0.77-0.166-1.147c-0.005-0.027-0.006-0.056-0.012-0.083c-0.021-0.099-0.06-0.19-0.085-0.288
				c-0.063-0.247-0.132-0.491-0.217-0.731c-0.018-0.05-0.028-0.104-0.046-0.154c-0.033-0.089-0.08-0.17-0.117-0.258
				c-0.089-0.217-0.186-0.429-0.293-0.637c-0.034-0.068-0.059-0.141-0.096-0.207c-0.035-0.065-0.083-0.124-0.12-0.19
				c-0.118-0.204-0.247-0.4-0.382-0.593c-0.053-0.075-0.095-0.158-0.15-0.232c-0.031-0.042-0.069-0.078-0.101-0.119
				c-0.157-0.203-0.328-0.394-0.503-0.583c-0.063-0.069-0.118-0.145-0.185-0.212c-0.019-0.02-0.042-0.038-0.062-0.057
				c-0.259-0.255-0.533-0.498-0.825-0.72c-0.006-0.004-0.012-0.011-0.017-0.015c-0.006-0.004-0.013-0.01-0.019-0.015
				c-0.018-0.014-0.04-0.025-0.058-0.039c-0.262-0.193-0.532-0.377-0.818-0.542c-0.025-0.014-0.052-0.024-0.076-0.039
				c-0.023-0.012-0.042-0.027-0.064-0.039c-0.089-0.049-0.187-0.085-0.278-0.131c-0.235-0.119-0.471-0.233-0.714-0.328
				c-0.042-0.016-0.079-0.041-0.122-0.056c-0.005-0.002-0.011-0.003-0.016-0.004c-0.009-0.003-0.015-0.008-0.024-0.011
				c-0.081-0.03-0.166-0.045-0.249-0.073c-0.233-0.078-0.466-0.149-0.703-0.207c-0.074-0.018-0.146-0.046-0.22-0.062
				c-0.072-0.016-0.145-0.02-0.217-0.034c-0.236-0.045-0.473-0.077-0.712-0.102c-0.096-0.011-0.191-0.031-0.286-0.039
				c-0.046-0.003-0.092,0-0.139-0.003c-0.261-0.014-0.521-0.011-0.782-0.001c-0.099,0.003-0.197-0.003-0.296,0.003
				c-0.018,0.001-0.035,0.003-0.055,0.005c-0.386,0.03-0.77,0.085-1.151,0.167c-0.038,0.009-0.074,0.021-0.112,0.03
				c-0.313,0.072-0.626,0.159-0.931,0.267c-0.038,0.013-0.075,0.025-0.113,0.039c-0.087,0.032-0.168,0.077-0.254,0.113
				c-0.177,0.072-0.356,0.134-0.529,0.218c-6.569,3.191-13.896,4.877-21.188,4.877c-8.416,0-16.742-2.239-24.08-6.474
				c-13.892-8.023-22.872-22.379-24.021-38.406c-0.046-0.641-0.173-1.264-0.354-1.866c-0.019-0.065-0.031-0.133-0.052-0.197
				c-0.058-0.178-0.136-0.347-0.206-0.519c-0.06-0.149-0.109-0.303-0.178-0.448c-0.046-0.099-0.106-0.19-0.157-0.286
				c-0.744-1.44-1.879-2.668-3.324-3.503c0,0-0.001,0-0.001-0.001c-1.532-0.884-3.274-1.258-4.985-1.118
				c-0.012,0.001-0.024,0-0.035,0.001c-0.217,0.018-0.431,0.06-0.647,0.094c-0.128,0.021-0.258,0.03-0.384,0.057
				c-0.082,0.017-0.16,0.046-0.241,0.067c-0.594,0.143-1.179,0.339-1.74,0.612l0.049-0.025l-0.391,0.175
				c-0.016,0.008-0.031,0.017-0.046,0.025c-6.471,3.073-13.652,4.705-20.805,4.705h-0.001c-8.415,0-16.742-2.239-24.078-6.475
				c-6.979-4.028-12.869-9.764-17.035-16.587c-1.698-2.782-4.822-4.357-8.073-4.078c-3.247,0.284-6.054,2.382-7.244,5.416
				c-15.486,39.466-16.355,83.387-2.448,123.67c11.707,33.911,33.312,63.36,61.786,84.709L208.68,366.03
				c-1.4,0.729-2.62,1.844-3.469,3.313l-22.545,39.126c6.219-10.812,2.497-24.669-8.308-30.906
				c-3.441-1.987-7.353-3.036-11.311-3.036c-8.073,0-15.593,4.34-19.625,11.326c-6.041,10.46-7.641,22.661-4.508,34.354
				c3.134,11.691,10.619,21.456,21.079,27.494c6.865,3.965,14.673,6.06,22.577,6.06c16.163,0,31.211-8.673,39.269-22.633
				l22.597-39.138c0.759-1.312,1.139-2.791,1.142-4.281l4.121-7.138l2.505,1.446c1.352,0.78,2.828,1.15,4.283,1.15
				c2.968,0,5.852-1.54,7.443-4.293c2.37-4.106,0.962-9.356-3.143-11.726l-2.504-1.446l12.56-21.751
				c2.371-4.105,0.964-9.355-3.142-11.725c-4.105-2.37-9.355-0.964-11.725,3.142l-16.835,29.155c-0.006,0.011-0.013,0.02-0.019,0.03
				c-0.006,0.011-0.011,0.021-0.016,0.032l-6.242,10.811l-7.327-4.23l51.64-89.446c0.006,0.003,0.013,0.008,0.018,0.011
				c0.858,0.524,1.727,1.033,2.596,1.543c0.308,0.18,0.616,0.371,0.923,0.548c0.031,0.018,0.061,0.036,0.092,0.054
				c0.003,0.002,0.006,0.004,0.01,0.005c0.01,0.005,0.02,0.011,0.03,0.017c1.205,0.694,2.425,1.379,3.66,2.053l-14.933,25.864
				c-2.371,4.105-0.964,9.355,3.142,11.725c4.104,2.37,9.355,0.964,11.725-3.142l15.559-26.947c0.817,0.349,1.631,0.704,2.452,1.04
				c21.462,8.804,44.484,13.397,67.699,13.396c3.306,0,6.615-0.093,9.921-0.28c23.14-1.304,46.143-7.136,67.078-17.064
				c18.3-8.679,35.124-20.551,49.479-34.83c4.785-4.76,9.296-9.786,13.496-15.052c0.254-0.319,0.483-0.651,0.686-0.996
				C512.234,237.251,512.4,234.265,511.196,231.68z M206.975,422.544c-5.002,8.664-14.352,14.048-24.401,14.048
				c-4.896,0-9.734-1.3-13.994-3.761c-6.489-3.746-11.134-9.809-13.08-17.071c-1.946-7.264-0.955-14.837,2.793-21.327
				c0.975-1.69,2.798-2.741,4.759-2.741c0.964,0,1.882,0.248,2.729,0.738c2.617,1.51,3.516,4.869,2.005,7.485
				c-2.29,3.964-2.896,8.585-1.71,13.013c1.186,4.426,4.023,8.123,7.986,10.412c2.602,1.502,5.562,2.297,8.56,2.297
				c6.115,0,11.811-3.285,14.864-8.573l18.305-31.704l9.492,5.48L206.975,422.544z M250.886,237.894
				c-37.064-40.926-51.666-99.369-36.162-153.596c3.801,3.651,8.048,6.851,12.64,9.502c9.943,5.74,21.237,8.775,32.661,8.775h0.003
				c3.304,0,6.613-0.264,9.886-0.766C249.599,155.561,243.311,203.595,250.886,237.894z M282.508,263.789
				c-11.454-11.061-17.616-30.912-17.525-57.104c0.093-26.607,6.624-58.741,18.615-92.297c0.099,0.19,0.206,0.377,0.307,0.565
				c0.122,0.23,0.247,0.458,0.371,0.687c0.393,0.719,0.799,1.43,1.219,2.134c0.087,0.145,0.169,0.293,0.257,0.437
				c0.503,0.829,1.028,1.647,1.568,2.454c0.123,0.185,0.252,0.367,0.378,0.55c0.446,0.651,0.903,1.294,1.373,1.929
				c0.143,0.193,0.283,0.387,0.428,0.578c0.587,0.776,1.188,1.542,1.81,2.292c0.077,0.093,0.159,0.183,0.237,0.277
				c0.553,0.659,1.12,1.306,1.7,1.944c0.179,0.196,0.358,0.392,0.54,0.587c0.592,0.636,1.195,1.262,1.813,1.875
				c0.081,0.082,0.16,0.165,0.242,0.246c0.693,0.68,1.408,1.343,2.133,1.994c0.193,0.173,0.388,0.342,0.584,0.513
				c0.586,0.514,1.182,1.017,1.789,1.511c0.183,0.149,0.364,0.302,0.549,0.45c0.761,0.606,1.536,1.197,2.327,1.771
				c0.165,0.12,0.335,0.235,0.501,0.353c0.654,0.466,1.319,0.921,1.994,1.364c0.232,0.152,0.465,0.305,0.699,0.455
				c0.837,0.535,1.682,1.059,2.548,1.559c9.322,5.381,19.833,8.384,30.523,8.738c0.712,0.024,1.426,0.035,2.141,0.035
				c2.327,0,4.657-0.129,6.974-0.379L282.508,263.789z M306.523,273.951c-0.321-0.02-0.634-0.057-0.952-0.083
				c-0.665-0.056-1.328-0.116-1.98-0.198c-0.368-0.047-0.729-0.107-1.092-0.163c-0.589-0.091-1.175-0.189-1.752-0.303
				c-0.376-0.074-0.747-0.157-1.117-0.24c-0.551-0.126-1.097-0.262-1.636-0.41c-0.208-0.057-0.413-0.117-0.619-0.177l66.093-114.476
				c0.15,0.34,0.315,0.673,0.471,1.01c0.135,0.291,0.267,0.582,0.407,0.869c0.378,0.783,0.769,1.558,1.177,2.325
				c0.057,0.107,0.109,0.218,0.167,0.325c0.47,0.871,0.962,1.729,1.471,2.576c0.145,0.242,0.297,0.48,0.445,0.72
				c0.379,0.613,0.765,1.22,1.163,1.82c0.182,0.275,0.367,0.548,0.554,0.82c0.409,0.597,0.829,1.185,1.259,1.767
				c0.165,0.224,0.326,0.452,0.495,0.675c0.597,0.789,1.207,1.567,1.839,2.328c0.091,0.109,0.187,0.215,0.278,0.323
				c0.547,0.65,1.107,1.291,1.68,1.921c0.217,0.238,0.439,0.472,0.659,0.707c0.474,0.506,0.956,1.005,1.447,1.497
				c0.236,0.236,0.471,0.472,0.711,0.705c0.138,0.135,0.271,0.275,0.412,0.409c0.425,0.406,0.864,0.798,1.3,1.192
				c0.163,0.148,0.322,0.3,0.487,0.446c0.742,0.657,1.501,1.297,2.276,1.922c0.209,0.168,0.425,0.331,0.635,0.497
				c0.584,0.459,1.175,0.911,1.776,1.352c0.277,0.203,0.557,0.402,0.837,0.602c0.578,0.411,1.165,0.811,1.76,1.204
				c0.265,0.175,0.527,0.353,0.794,0.525c0.852,0.546,1.715,1.079,2.597,1.589c0.65,0.376,1.308,0.738,1.969,1.09
				c0.211,0.113,0.426,0.218,0.638,0.328c0.454,0.235,0.909,0.47,1.368,0.694c0.25,0.122,0.503,0.238,0.755,0.357
				c0.428,0.203,0.856,0.404,1.288,0.598c0.263,0.118,0.529,0.23,0.793,0.344c0.426,0.183,0.853,0.366,1.283,0.541
				c0.268,0.109,0.538,0.214,0.808,0.32c0.432,0.17,0.866,0.335,1.302,0.495c0.268,0.099,0.538,0.194,0.807,0.289
				c0.443,0.156,0.887,0.307,1.333,0.454c0.265,0.087,0.531,0.173,0.797,0.256c0.457,0.144,0.915,0.281,1.376,0.414
				c0.259,0.075,0.516,0.15,0.776,0.222c0.476,0.132,0.955,0.256,1.433,0.378c0.246,0.062,0.49,0.126,0.736,0.185
				c0.503,0.121,1.009,0.233,1.515,0.342c0.225,0.048,0.45,0.1,0.676,0.146c0.557,0.114,1.115,0.217,1.674,0.315
				c0.176,0.031,0.352,0.067,0.528,0.097c0.706,0.119,1.415,0.227,2.126,0.323c0.031,0.004,0.062,0.01,0.093,0.014
				c0.023,0.003,0.044,0.008,0.065,0.01c0.732,0.097,1.465,0.18,2.2,0.252c0.131,0.013,0.263,0.02,0.394,0.032
				c0.607,0.056,1.215,0.106,1.823,0.145c0.268,0.017,0.536,0.026,0.804,0.04c0.472,0.024,0.944,0.048,1.416,0.062
				c0.317,0.01,0.633,0.011,0.95,0.016c0.313,0.004,0.626,0.015,0.939,0.015c0.107,0,0.216-0.005,0.323-0.005
				c0.395-0.002,0.79-0.012,1.186-0.021c0.372-0.009,0.746-0.017,1.118-0.032c0.122-0.005,0.247-0.005,0.37-0.011
				c-16.779,19.781-34.316,36.651-51.603,49.583c-1.152,0.862-2.304,1.707-3.454,2.533c-22.926,16.487-44.237,25.203-61.629,25.203
				C308.517,274.048,307.514,274.012,306.523,273.951z M483.854,244.252c-30.08,29.735-70.569,46.465-113.703,46.466
				c-1.677,0.001-3.355-0.029-5.031-0.082c-0.57-0.018-1.137-0.053-1.706-0.076c-1.107-0.047-2.214-0.095-3.32-0.165
				c-0.674-0.043-1.345-0.1-2.018-0.15c-1-0.076-2-0.153-2.998-0.248c-0.712-0.068-1.423-0.146-2.133-0.223
				c-0.958-0.104-1.915-0.212-2.871-0.334c-0.725-0.091-1.45-0.19-2.173-0.292c-0.944-0.132-1.886-0.274-2.828-0.423
				c-0.722-0.115-1.443-0.232-2.163-0.356c-0.947-0.163-1.892-0.339-2.836-0.519c-0.706-0.135-1.412-0.268-2.116-0.412
				c-0.866-0.177-1.727-0.37-2.59-0.562c14.452-4.561,29.93-12.665,45.823-24.094c21.117-15.187,42.581-35.928,62.751-60.522
				c5.337,13.673,15.171,25.337,28.22,32.873c4.599,2.655,9.501,4.734,14.572,6.201C485.785,242.32,484.825,243.293,483.854,244.252
				z"/>
			<path d="M8.584,285.945h167.042c4.74,0,8.584-3.843,8.584-8.584s-3.843-8.584-8.584-8.584H8.584c-4.74,0-8.584,3.843-8.584,8.584
				S3.843,285.945,8.584,285.945z"/>
			<path d="M13.852,297.815H8.584c-4.74,0-8.584,3.843-8.584,8.584c0,4.74,3.843,8.584,8.584,8.584h5.268
				c4.74,0,8.584-3.843,8.584-8.584C22.435,301.659,18.592,297.815,13.852,297.815z"/>
			<path d="M148.298,333.214c0-19.519-15.88-35.399-35.398-35.399H40.575c-4.74,0-8.584,3.843-8.584,8.584
				c0,4.74,3.843,8.584,8.584,8.584H112.9c10.052,0,18.231,8.179,18.231,18.232c0,9.801-7.78,17.797-17.485,18.193
				c-0.246-0.021-0.494-0.038-0.746-0.038c-10.032,0-18.193-8.161-18.193-18.194c0-4.74-3.843-8.584-8.584-8.584
				c-4.74,0-8.584,3.843-8.584,8.584c0,19.063,15.165,34.642,34.063,35.328c0.424,0.064,0.855,0.108,1.297,0.108
				C132.419,368.612,148.298,352.732,148.298,333.214z"/>
			<path d="M83.948,254.304h62.873c19.517,0,35.397-15.88,35.397-35.399c0-19.518-15.88-35.398-35.397-35.398
				c-0.442,0-0.872,0.044-1.297,0.108c-18.898,0.686-34.063,16.265-34.063,35.327c0,4.74,3.843,8.584,8.584,8.584
				s8.584-3.843,8.584-8.584c0-10.032,8.161-18.193,18.193-18.193c0.252,0,0.499-0.016,0.746-0.038
				c9.705,0.396,17.484,8.392,17.484,18.193c0,10.053-8.178,18.232-18.229,18.232H83.948c-4.74,0-8.584,3.843-8.584,8.584
				S79.208,254.304,83.948,254.304z"/>
			<path d="M208.972,285.945c4.74,0,8.584-3.843,8.584-8.584s-3.843-8.584-8.584-8.584h-6.892c-4.74,0-8.584,3.843-8.584,8.584
				s3.843,8.584,8.584,8.584H208.972z"/>
		</g>
	</g>
</g>
<g>
</g>
<g>
</g>
<g>
</g>
<g>
</g>
<g>
</g>
<g>
</g>
<g>
</g>
<g>
</g>
<g>
</g>
<g>
</g>
<g>
</g>
<g>
</g>
<g>
</g>
<g>
</g>
<g>
</g>
</svg>
